<svg id="Capa_1" enable-background="new 0 0 512 512" height="512" viewBox="0 0 512 512" width="512" xmlns="http://www.w3.org/2000/svg"><g><path d="m470.879 85.69-3.292-9.315c-4.635-13.113-16.058-22.551-29.811-24.63l-14.78-2.234c-73.655-11.131-148.722-14.876-223.116-11.137-4.137.208-7.322 3.73-7.114 7.867.208 4.138 3.74 7.321 7.867 7.114 73.395-3.692 147.454.006 220.121 10.988l14.78 2.234c.616.093 1.221.218 1.82.36l-51.956 45.638c-3.767-1.942-8.034-3.046-12.556-3.046h-233.684c-4.522 0-8.789 1.104-12.556 3.046l-51.956-45.638c.599-.141 1.204-.267 1.82-.36l14.78-2.233c24.665-3.728 49.774-6.651 74.631-8.69 4.128-.339 7.2-3.96 6.862-8.088-.339-4.128-3.955-7.194-8.088-6.862-25.194 2.067-50.645 5.03-75.646 8.809l-14.781 2.233c-13.752 2.079-25.175 11.517-29.811 24.63l-3.292 9.315c-16.18 45.771-27.747 93.367-34.379 141.463-.566 4.103 2.302 7.888 6.405 8.454.348.048.692.071 1.034.071 3.688 0 6.902-2.721 7.42-6.477 6.494-47.093 17.82-93.696 33.663-138.513l3.292-9.315c.755-2.135 1.817-4.1 3.118-5.867l53.919 47.363c-2.496 4.139-3.935 8.983-3.935 14.159v160c0 4.648 1.164 9.029 3.208 12.872l-59.389 35.128h-14.477c-6.893 0-12.5 5.607-12.5 12.5v16.5h-13.5v-48.627c0-20.602.919-41.454 2.732-61.976.365-4.126-2.685-7.767-6.811-8.131-4.114-.369-7.767 2.684-8.131 6.811-1.851 20.959-2.79 42.255-2.79 63.296v76.685c0 7.335 1.734 14.681 5.015 21.243l5.249 10.498c4.688 9.376 14.113 15.202 24.597 15.202h11.073l5.685 14.782c2.58 6.71 9.144 11.218 16.333 11.218h46.264c7.189 0 13.753-4.508 16.333-11.218l5.685-14.782h239.528l5.685 14.782c2.58 6.71 9.144 11.218 16.333 11.218h46.264c7.189 0 13.753-4.508 16.333-11.218l5.686-14.782h11.073c10.484 0 19.909-5.825 24.597-15.201l5.25-10.499c3.28-6.562 5.014-13.907 5.014-21.242v-76.685c.003-81.872-13.832-162.523-41.118-239.713zm-98.037 38.839c6.893 0 12.5 5.607 12.5 12.5v14.989c0 4.142 3.358 7.5 7.5 7.5s7.5-3.358 7.5-7.5v-14.989c0-5.175-1.439-10.02-3.935-14.159l53.919-47.362c1.3 1.767 2.363 3.732 3.118 5.867l3.292 9.315c26.717 75.579 40.264 154.548 40.264 234.712v48.627h-13.5v-16.5c0-6.893-5.607-12.5-12.5-12.5h-14.477l-59.389-35.128c2.045-3.843 3.208-8.224 3.208-12.872v-110.011c0-4.142-3.358-7.5-7.5-7.5s-7.5 3.358-7.5 7.5v110.011c0 6.893-5.607 12.5-12.5 12.5h-233.684c-6.893 0-12.5-5.607-12.5-12.5v-160c0-6.893 5.607-12.5 12.5-12.5zm61.769 249.5v-14h19.838c.005 0 .01.001.015.001s.01-.001.015-.001h14.021v14zm-29.333 0v-16.5c0-6.893-5.607-12.5-12.5-12.5h-38.889c-6.893 0-12.5 5.607-12.5 12.5v16.5h-14.333v-16.5c0-6.893-5.607-12.5-12.5-12.5h-38.889c-6.893 0-12.5 5.607-12.5 12.5v16.5h-14.333v-16.5c0-6.893-5.607-12.5-12.5-12.5h-38.889c-6.893 0-12.5 5.607-12.5 12.5v16.5h-14.333v-16.5c0-6.893-5.607-12.5-12.5-12.5h-38.889c-6.893 0-12.5 5.607-12.5 12.5v16.5h-14.334v-16.5c0-5.511-3.589-10.191-8.548-11.849l41.793-24.72c3.997 2.268 8.61 3.57 13.524 3.57h233.685c4.914 0 9.527-1.302 13.524-3.57l41.793 24.72c-4.96 1.659-8.548 6.339-8.548 11.849v16.5zm-48.889 0v-14h33.889v14zm-78.222 0v-14h33.889v14zm-78.223 0v-14h33.889v14zm-78.222 0v-14h33.889v14zm-78.222-14h14.021c.005 0 .01.001.015.001s.01-.001.015-.001h19.838v14h-33.889zm73.051 98.398c-.369.958-1.307 1.602-2.333 1.602h-46.265c-1.027 0-1.965-.644-2.333-1.603l-3.614-9.397h58.16zm329.829 0c-.369.958-1.307 1.602-2.333 1.602h-46.264c-1.027 0-1.965-.644-2.333-1.603l-3.614-9.397h58.16zm30.759-24.398h-442.278c-4.766 0-9.049-2.647-11.181-6.91l-4.045-8.09h291.45c4.142 0 7.5-3.358 7.5-7.5s-3.358-7.5-7.5-7.5h-296.085v-15h482v15h-150.915c-4.142 0-7.5 3.358-7.5 7.5s3.358 7.5 7.5 7.5h146.28l-4.046 8.09c-2.131 4.262-6.414 6.91-11.18 6.91z"/><path d="m166 164.529h64.958c4.142 0 7.5-3.358 7.5-7.5s-3.358-7.5-7.5-7.5h-64.958c-4.142 0-7.5 3.358-7.5 7.5s3.358 7.5 7.5 7.5z"/><path d="m309.213 194.529h36.787c4.142 0 7.5-3.358 7.5-7.5s-3.358-7.5-7.5-7.5h-36.787c-4.142 0-7.5 3.358-7.5 7.5s3.358 7.5 7.5 7.5z"/><path d="m166 194.529h113.213c4.142 0 7.5-3.358 7.5-7.5s-3.358-7.5-7.5-7.5h-113.213c-4.142 0-7.5 3.358-7.5 7.5s3.358 7.5 7.5 7.5z"/><path d="m166 224.529h180c4.142 0 7.5-3.358 7.5-7.5s-3.358-7.5-7.5-7.5h-180c-4.142 0-7.5 3.358-7.5 7.5s3.358 7.5 7.5 7.5z"/><path d="m353.5 247.029c0-4.142-3.358-7.5-7.5-7.5h-99.111c-4.142 0-7.5 3.358-7.5 7.5s3.358 7.5 7.5 7.5h99.111c4.142 0 7.5-3.358 7.5-7.5z"/><path d="m166 254.529h50.889c4.142 0 7.5-3.358 7.5-7.5s-3.358-7.5-7.5-7.5h-50.889c-4.142 0-7.5 3.358-7.5 7.5s3.358 7.5 7.5 7.5z"/><path d="m166 284.529h90c4.142 0 7.5-3.358 7.5-7.5s-3.358-7.5-7.5-7.5h-90c-4.142 0-7.5 3.358-7.5 7.5s3.358 7.5 7.5 7.5z"/><path d="m286.002 269.529h-.01c-4.142 0-7.495 3.358-7.495 7.5s3.363 7.5 7.505 7.5c4.143 0 7.5-3.358 7.5-7.5s-3.357-7.5-7.5-7.5z"/><path d="m316.002 269.529h-.01c-4.142 0-7.495 3.358-7.495 7.5s3.363 7.5 7.505 7.5c4.143 0 7.5-3.358 7.5-7.5s-3.357-7.5-7.5-7.5z"/><path d="m346.003 269.529h-.01c-4.142 0-7.495 3.358-7.495 7.5s3.363 7.5 7.505 7.5c4.143 0 7.5-3.358 7.5-7.5s-3.358-7.5-7.5-7.5z"/></g></svg>