<svg height="512" viewBox="0 0 60 60" width="512" xmlns="http://www.w3.org/2000/svg"><g id="Icons"><path d="m50 60a3 3 0 0 0 3-3v-54a3 3 0 0 0 -3-3h-40a3 3 0 0 0 -3 3v54a3 3 0 0 0 3 3zm1-53v22h-42v-22zm-14 24v6h-14v-6zm-14 8h14v19h-14zm16-8h3v27h-3zm-18 0v27h-3v-27zm29 27h-6v-27h7v26a1 1 0 0 1 -1 1zm-40-56h40a1 1 0 0 1 1 1v2h-8v-1a1 1 0 0 0 -2 0v1h-6v-1a1 1 0 0 0 -2 0v1h-6v-1a1 1 0 0 0 -2 0v1h-6v-1a1 1 0 0 0 -2 0v1h-8v-2a1 1 0 0 1 1-1zm-1 55v-26h7v27h-6a1 1 0 0 1 -1-1z"/><path d="m20 27a8.994 8.994 0 0 0 5.645-16h8.71a8.991 8.991 0 1 0 5.645-2h-20a9 9 0 0 0 0 18zm27-9a7 7 0 1 1 -7-7 7.009 7.009 0 0 1 7 7zm-27-7a7 7 0 1 1 -7 7 7.009 7.009 0 0 1 7-7z"/><path d="m20 21a3 3 0 1 0 -3-3 3 3 0 0 0 3 3zm0-4a1 1 0 1 1 -1 1 1 1 0 0 1 1-1z"/><circle cx="20" cy="13" r="1"/><circle cx="16" cy="21" r="1"/><circle cx="12" cy="26" r="1"/><circle cx="48" cy="26" r="1"/><circle cx="24" cy="21" r="1"/><path d="m37 18a3 3 0 1 0 3-3 3 3 0 0 0 -3 3zm4 0a1 1 0 1 1 -1-1 1 1 0 0 1 1 1z"/><circle cx="40" cy="13" r="1"/><circle cx="36" cy="21" r="1"/><circle cx="44" cy="21" r="1"/><path d="m27 35a1 1 0 0 0 1-1v-1a1 1 0 0 0 -2 0v1a1 1 0 0 0 1 1z"/><path d="m33 35a1 1 0 0 0 1-1v-1a1 1 0 0 0 -2 0v1a1 1 0 0 0 1 1z"/></g></svg>