<svg id="Icons" height="512" viewBox="0 0 60 60" width="512" xmlns="http://www.w3.org/2000/svg"><path d="m12 60h36a3 3 0 0 0 3-3v-3.184a3 3 0 0 0 2-2.816v-48a3 3 0 0 0 -3-3h-40a3 3 0 0 0 -3 3v48a3 3 0 0 0 2 2.816v3.184a3 3 0 0 0 3 3zm37-3a1 1 0 0 1 -1 1h-36a1 1 0 0 1 -1-1v-3h38zm-40-54a1 1 0 0 1 1-1h40a1 1 0 0 1 1 1v48a1 1 0 0 1 -1 1h-40a1 1 0 0 1 -1-1z"/><path d="m15 34h30a4 4 0 0 0 4-4v-22a4 4 0 0 0 -4-4h-30a4 4 0 0 0 -4 4v22a4 4 0 0 0 4 4zm-2-26a2 2 0 0 1 2-2h30a2 2 0 0 1 2 2v22a2 2 0 0 1 -2 2h-30a2 2 0 0 1 -2-2z"/><path d="m46 39h-3a2 2 0 0 0 -2 2h-10a1 1 0 0 0 0 2h10a2 2 0 0 0 2 2h3a2 2 0 0 0 2-2v-2a2 2 0 0 0 -2-2zm-3 4v-2h3v2z"/><path d="m15 41h-2a1 1 0 0 0 0 2h2a1 1 0 0 0 0-2z"/><path d="m26 30h8a1 1 0 0 0 0-2h-8a1 1 0 0 0 0 2z"/><path d="m26 14h10a1 1 0 0 0 0-2h-10a1 1 0 0 0 0 2z"/><path d="m35 16h-6a1 1 0 0 0 0 2h6a1 1 0 0 0 0-2z"/><path d="m39 18h5a1 1 0 0 0 0-2h-5a1 1 0 0 0 0 2z"/><path d="m35 24h-6a1 1 0 0 0 0 2h6a1 1 0 0 0 0-2z"/><path d="m44 24h-5a1 1 0 0 0 0 2h5a1 1 0 0 0 0-2z"/><path d="m35 21a1 1 0 0 0 -1-1h-6a1 1 0 0 0 0 2h6a1 1 0 0 0 1-1z"/><path d="m38 22h5a1 1 0 0 0 0-2h-5a1 1 0 0 0 0 2z"/><path d="m26 10h8a1 1 0 0 0 0-2h-8a1 1 0 0 0 0 2z"/><path d="m22 30a1 1 0 0 0 1-1v-20a1 1 0 0 0 -2 0v20a1 1 0 0 0 1 1z"/><path d="m16 14h2a1 1 0 0 0 0-2h-2a1 1 0 0 0 0 2z"/><path d="m16 10h2a1 1 0 0 0 0-2h-2a1 1 0 0 0 0 2z"/><path d="m16 18h2a1 1 0 0 0 0-2h-2a1 1 0 0 0 0 2z"/><path d="m16 22h2a1 1 0 0 0 0-2h-2a1 1 0 0 0 0 2z"/><path d="m16 26h2a1 1 0 0 0 0-2h-2a1 1 0 0 0 0 2z"/><path d="m16 30h2a1 1 0 0 0 0-2h-2a1 1 0 0 0 0 2z"/></svg>