<?xml version="1.0"?>
<svg xmlns="http://www.w3.org/2000/svg" viewBox="0 0 64 64" width="512" height="512"><g id="outline"><path d="M57,2H7V46H2V62H62V46H57ZM9,4H55V34H9ZM9,36H55V46H9ZM60,48V60H4V48Z"/><rect x="11" y="38" width="2" height="2"/><rect x="15" y="38" width="2" height="2"/><rect x="11" y="42" width="2" height="2"/><rect x="15" y="42" width="2" height="2"/><rect x="6" y="51" width="2" height="6"/><rect x="10" y="51" width="2" height="6"/><rect x="14" y="51" width="2" height="6"/><rect x="18" y="51" width="2" height="6"/><path d="M30,58H58V50H30Zm2-6H56v4H32Z"/><path d="M25,51a3,3,0,1,0,3,3A3,3,0,0,0,25,51Zm0,4a1,1,0,1,1,1-1A1,1,0,0,1,25,55Z"/><path d="M45,44h6V38H45Zm2-4h2v2H47Z"/><path d="M23,44H41V38H23Zm2-4H39v2H25Z"/><path d="M11,6V32H53V6ZM45,30H30.414l7.293-7.293-1.414-1.414L27.586,30H21.414l7.293-7.293-1.414-1.414L18.586,30H13V8H45ZM47,8h4v2H49v2h2v2H49v2h2V30H47Z"/></g></svg>
