<svg id="Layer_5" enable-background="new 0 0 64 64" height="512" viewBox="0 0 64 64" width="512" xmlns="http://www.w3.org/2000/svg"><g><path d="m17 41h2v2h-2z"/><path d="m25 41h2v2h-2z"/><path d="m21 41h2v2h-2z"/><path d="m41 41h2v2h-2z"/><path d="m13 41h2v2h-2z"/><path d="m29 41h2v2h-2z"/><path d="m37 41h2v2h-2z"/><path d="m33 41h2v2h-2z"/><path d="m9 41h2v2h-2z"/><path d="m5 41h2v2h-2z"/><path d="m5 45h2v2h-2z"/><path d="m9 45h2v2h-2z"/><path d="m13 45h2v2h-2z"/><path d="m37 45h2v2h-2z"/><path d="m41 45h2v2h-2z"/><path d="m33 45h2v2h-2z"/><path d="m17 45h14v2h-14z"/><path d="m39 5h-30c-1.103 0-2 .897-2 2v16c0 1.103.897 2 2 2h30c1.103 0 2-.897 2-2v-16c0-1.103-.897-2-2-2zm-30 18v-16h30l.001 16z"/><path d="m15 27h2v2h-2z"/><path d="m7 27h2v2h-2z"/><path d="m11 27h2v2h-2z"/><path d="m58 45h-1v-7c0-1.654-1.346-3-3-3h-3c-1.103 0-2-.897-2-2s.897-2 2-2h8c2.206 0 4-1.794 4-4s-1.794-4-4-4h-14v-17c0-2.757-2.243-5-5-5h-32c-2.757 0-5 2.243-5 5v22c0 2.757 2.243 5 5 5h5v4h-9c-1.654 0-3 1.346-3 3v12c0 1.654 1.346 3 3 3h40c1.654 0 3-1.346 3-3v-12c0-1.654-1.346-3-3-3h-9v-4h5c2.757 0 5-2.243 5-5v-3h14c1.103 0 2 .897 2 2s-.897 2-2 2h-8c-2.206 0-4 1.794-4 4s1.794 4 4 4h3c.551 0 1 .448 1 1v7h-1c-2.757 0-5 2.243-5 5v6c0 3.859 3.14 7 7 7s7-3.141 7-7v-6c0-2.757-2.243-5-5-5zm-14 8h-40c-.551 0-1-.448-1-1v-1h42v1c0 .552-.449 1-1 1zm1-13v9h-42v-9c0-.552.449-1 1-1h40c.551 0 1 .448 1 1zm-12-3h-18v-4h18zm10-9c0 1.654-1.346 3-3 3h-32c-1.654 0-3-1.346-3-3v-22c0-1.654 1.346-3 3-3h32c1.654 0 3 1.346 3 3zm11 19h4c1.654 0 3 1.346 3 3v1h-10v-1c0-1.654 1.346-3 3-3zm2 14c-2.757 0-5-2.243-5-5v-3h10v3c0 2.757-2.243 5-5 5z"/></g></svg>