<?xml version="1.0" encoding="iso-8859-1"?>
<!-- Generator: Adobe Illustrator 19.0.0, SVG Export Plug-In . SVG Version: 6.00 Build 0)  -->
<svg version="1.1" id="Capa_1" xmlns="http://www.w3.org/2000/svg" xmlns:xlink="http://www.w3.org/1999/xlink" x="0px" y="0px"
	 viewBox="0 0 512 512" style="enable-background:new 0 0 512 512;" xml:space="preserve">
<g>
	<g>
		<path d="M382.733,45.624H108.99c-20.965,0-38.02,17.055-38.02,38.02v192.634c0,20.965,17.055,38.02,38.02,38.02h273.743
			c20.965,0,38.02-17.055,38.02-38.02V83.644C420.753,62.679,403.697,45.624,382.733,45.624z M405.545,276.277
			c0,12.578-10.233,22.812-22.812,22.812H108.99c-12.579,0-22.812-10.234-22.812-22.812V83.644
			c0-12.578,10.233-22.812,22.812-22.812h273.743c12.579,0,22.812,10.234,22.812,22.812V276.277z"/>
	</g>
</g>
<g>
	<g>
		<path d="M481.584,344.713V27.881C481.584,12.508,469.077,0,453.703,0H58.297C42.923,0,30.416,12.508,30.416,27.881v316.832H0V512
			h512V344.713H481.584z M45.624,27.881c0-6.989,5.685-12.673,12.673-12.673h395.406c6.989,0,12.673,5.685,12.673,12.673v316.832
			H45.624V27.881z M496.792,496.792H228.119v-28.895h-15.208v28.895h-15.208v-28.895h-15.208v28.895h-15.208v-28.895h-15.208v28.895
			h-15.208v-28.895h-15.208v28.895h-15.208v-28.895H91.247v28.895H76.04v-28.895H60.832v28.895H45.624v-28.895H30.416v28.895H15.208
			V359.921h481.584V496.792z"/>
	</g>
</g>
<g>
	<g>
		<rect x="212.911" y="437.481" width="15.208" height="15.208"/>
	</g>
</g>
<g>
	<g>
		<rect x="182.495" y="437.481" width="15.208" height="15.208"/>
	</g>
</g>
<g>
	<g>
		<rect x="152.079" y="437.481" width="15.208" height="15.208"/>
	</g>
</g>
<g>
	<g>
		<rect x="121.663" y="437.481" width="15.208" height="15.208"/>
	</g>
</g>
<g>
	<g>
		<rect x="91.247" y="437.481" width="15.208" height="15.208"/>
	</g>
</g>
<g>
	<g>
		<rect x="60.832" y="437.481" width="15.208" height="15.208"/>
	</g>
</g>
<g>
	<g>
		<rect x="30.416" y="437.481" width="15.208" height="15.208"/>
	</g>
</g>
<g>
	<g>
		<rect x="435.96" y="216.966" width="15.208" height="15.208"/>
	</g>
</g>
<g>
	<g>
		<rect x="435.96" y="257.521" width="15.208" height="15.208"/>
	</g>
</g>
<g>
	<g>
		<rect x="270.194" y="395.406" width="202.772" height="15.208"/>
	</g>
</g>
<g>
	<g>
		<rect x="412.135" y="425.822" width="40.555" height="15.208"/>
	</g>
</g>
<g>
	<g>
		<rect x="290.471" y="425.822" width="15.208" height="15.208"/>
	</g>
</g>
<g>
	<g>
		<path d="M30.416,375.129v45.624h55.762v-45.624H30.416z M70.97,405.545H45.624v-15.208H70.97V405.545z"/>
	</g>
</g>
<g>
	<g>
		<rect x="102.907" y="95.303" width="182.495" height="15.208"/>
	</g>
</g>
<g>
	<g>
		<rect x="102.907" y="125.719" width="223.049" height="15.208"/>
	</g>
</g>
<g>
	<g>
		<rect x="102.907" y="156.135" width="152.079" height="15.208"/>
	</g>
</g>
<g>
	<g>
		<rect x="102.907" y="186.55" width="202.772" height="15.208"/>
	</g>
</g>
<g>
	<g>
		<rect x="102.907" y="216.966" width="15.208" height="15.208"/>
	</g>
</g>
<g>
</g>
<g>
</g>
<g>
</g>
<g>
</g>
<g>
</g>
<g>
</g>
<g>
</g>
<g>
</g>
<g>
</g>
<g>
</g>
<g>
</g>
<g>
</g>
<g>
</g>
<g>
</g>
<g>
</g>
</svg>
