<svg id="Capa_1" enable-background="new 0 0 512 512" height="512" viewBox="0 0 512 512" width="512" xmlns="http://www.w3.org/2000/svg"><g><path d="m428.072 327.794c11.403 0 20.681-9.277 20.681-20.68v-251.556c0-11.403-9.277-20.68-20.681-20.68h-336.709c-11.403 0-20.68 9.277-20.68 20.68v251.557c0 11.403 9.276 20.68 20.68 20.68h336.709zm-342.388-20.679v-251.557c0-3.132 2.548-5.68 5.68-5.68h336.709c3.133 0 5.681 2.548 5.681 5.68v251.557c0 3.132-2.548 5.68-5.681 5.68h-336.71c-3.132-.001-5.679-2.548-5.679-5.68z"/><path d="m136.705 268.204c24.136 3.701 50.046 5.551 75.956 5.551s51.821-1.851 75.957-5.551c11.296-1.732 20.213-10.5 22.189-21.817 7.535-43.164 7.535-86.937 0-130.101-1.977-11.317-10.894-20.085-22.189-21.817-48.271-7.401-103.642-7.401-151.913 0-11.297 1.732-20.214 10.5-22.19 21.817-7.535 43.164-7.535 86.937 0 130.101 1.976 11.317 10.893 20.084 22.19 21.817zm-7.413-149.338c.867-4.969 4.76-8.815 9.687-9.57 23.416-3.591 48.545-5.385 73.683-5.385 25.132 0 50.272 1.795 73.684 5.385 4.926.756 8.818 4.602 9.686 9.571 7.237 41.452 7.237 83.488 0 124.94-.867 4.969-4.76 8.814-9.686 9.57-46.828 7.181-100.54 7.181-147.366 0-4.927-.755-8.819-4.601-9.687-9.57-7.238-41.453-7.238-83.489-.001-124.941z"/><path d="m377.589 281.931c13.492 0 24.469-10.977 24.469-24.468s-10.977-24.468-24.469-24.468c-13.491 0-24.468 10.976-24.468 24.468s10.977 24.468 24.468 24.468zm0-33.936c5.221 0 9.469 4.247 9.469 9.468s-4.248 9.468-9.469 9.468-9.468-4.248-9.468-9.468 4.247-9.468 9.468-9.468z"/><path d="m377.589 214.827c13.492 0 24.469-10.976 24.469-24.468s-10.977-24.468-24.469-24.468c-13.491 0-24.468 10.976-24.468 24.468s10.977 24.468 24.468 24.468zm0-33.935c5.221 0 9.469 4.247 9.469 9.468s-4.248 9.468-9.469 9.468-9.468-4.247-9.468-9.468 4.247-9.468 9.468-9.468z"/><path d="m377.589 142.37c4.143 0 7.5-3.358 7.5-7.5v-46.628c0-4.142-3.357-7.5-7.5-7.5s-7.5 3.358-7.5 7.5v46.628c0 4.142 3.357 7.5 7.5 7.5z"/><path d="m491.53 447.991h-5.73v-12.601c0-9.252-7.527-16.78-16.78-16.78h-26.623l-21.874-26.799c-3.271-4.012-5.072-9.073-5.072-14.25v-14.888h43.87c13.366 0 24.24-10.874 24.24-24.24v-314.193c0-13.366-10.874-24.24-24.24-24.24h-399.204c-13.366 0-24.24 10.874-24.24 24.24v56.149c0 4.142 3.357 7.5 7.5 7.5s7.5-3.358 7.5-7.5v-56.149c0-5.095 4.146-9.24 9.24-9.24h399.203c5.095 0 9.24 4.145 9.24 9.24v314.192c0 5.095-4.146 9.24-9.24 9.24-16.734 0-391.3 0-399.203 0-5.095 0-9.24-4.145-9.24-9.24v-223.043c0-4.142-3.357-7.5-7.5-7.5s-7.5 3.358-7.5 7.5v223.043c0 13.366 10.874 24.24 24.24 24.24h36.433v14.888c0 5.178-1.802 10.238-5.07 14.248l-21.876 26.802h-26.624c-9.253 0-16.78 7.528-16.78 16.78v12.601h-5.73c-9.664 0-17.526 7.862-17.526 17.526v28.958c0 9.664 7.862 17.526 17.526 17.526h368.525c4.143 0 7.5-3.358 7.5-7.5s-3.357-7.5-7.5-7.5h-368.525c-1.393 0-2.526-1.133-2.526-2.526v-28.958c0-1.393 1.134-2.526 2.526-2.526h471.06c1.393 0 2.526 1.133 2.526 2.526v28.958c0 1.393-1.134 2.526-2.526 2.526h-67.535c-4.143 0-7.5 3.358-7.5 7.5s3.357 7.5 7.5 7.5h67.535c9.664 0 17.526-7.862 17.526-17.526v-28.958c.001-9.664-7.862-17.526-17.526-17.526zm-20.73-12.601v12.601h-31.12v-12.601c0-.981.799-1.78 1.78-1.78h27.56c.981 0 1.78.799 1.78 1.78zm-367.697-34.101c5.447-6.681 8.447-15.108 8.447-23.729v-14.888h288.9v14.888c0 8.621 3 17.048 8.449 23.732l19.381 23.746c-2.248 2.855-3.601 6.446-3.601 10.353v12.601h-18.569v-12.602c0-9.252-7.527-16.78-16.78-16.78h-27.57c-9.247 0-16.77 7.528-16.77 16.78v12.601h-18.58v-12.601c0-9.252-7.527-16.78-16.78-16.78h-27.56c-9.253 0-16.78 7.528-16.78 16.78v12.601h-18.58v-12.601c0-9.252-7.527-16.78-16.78-16.78h-27.56c-9.253 0-16.78 7.528-16.78 16.78v12.601h-18.58v-12.601c0-9.252-7.522-16.78-16.77-16.78h-27.57c-9.253 0-16.78 7.528-16.78 16.78v12.601h-18.57v-12.601c0-3.907-1.353-7.498-3.601-10.353zm288.007 46.702h-31.12v-12.601c0-.981.794-1.78 1.77-1.78h27.57c.981 0 1.78.799 1.78 1.78zm-79.7 0h-31.12v-12.601c0-.981.799-1.78 1.78-1.78h27.56c.981 0 1.78.799 1.78 1.78zm-79.7 0h-31.12v-12.601c0-.981.799-1.78 1.78-1.78h27.56c.981 0 1.78.799 1.78 1.78zm-79.7 0h-31.12v-12.601c0-.981.799-1.78 1.78-1.78h27.57c.976 0 1.77.799 1.77 1.78zm-110.81-12.601c0-.981.799-1.78 1.78-1.78h27.56c.981 0 1.78.799 1.78 1.78v12.601h-31.12z"/></g></svg>