<svg id="Layer_3" height="512" viewBox="0 0 64 64" width="512" xmlns="http://www.w3.org/2000/svg" data-name="Layer 3"><path d="m62 47h-19.382l-2.329-4.658 5.011-3.342h6.7a3 3 0 0 0 3-3v-32a3 3 0 0 0 -3-3h-40a3 3 0 0 0 -3 3v32a3 3 0 0 0 3 3h5.7l5.014 3.342-2.332 4.658h-18.382a1 1 0 0 0 -1 1v14a1 1 0 0 0 1 1h60a1 1 0 0 0 1-1v-14a1 1 0 0 0 -1-1zm-51-11v-32a1 1 0 0 1 1-1h40a1 1 0 0 1 1 1v32a1 1 0 0 1 -1 1h-40a1 1 0 0 1 -1-1zm30.7 3-3 2h-14.4l-3-2zm-17.082 4h13.764l2 4h-17.764zm36.382 18h-58v-12h58z"/><path d="m50 5h-36a1 1 0 0 0 -1 1v24a1 1 0 0 0 1 1h36a1 1 0 0 0 1-1v-24a1 1 0 0 0 -1-1zm-1 24h-34v-22h34z"/><path d="m31 33h2v2h-2z"/><path d="m27 33h2v2h-2z"/><path d="m35 33h2v2h-2z"/><path d="m13 33h6v2h-6z"/><path d="m30 59h28a1 1 0 0 0 1-1v-6a1 1 0 0 0 -1-1h-28a1 1 0 0 0 -1 1v6a1 1 0 0 0 1 1zm1-6h26v4h-26z"/><path d="m5 51h2v8h-2z"/><path d="m9 51h2v8h-2z"/><path d="m13 51h2v8h-2z"/><path d="m17 51h2v8h-2z"/></svg>