<?xml version="1.0" encoding="iso-8859-1"?>
<!-- Generator: Adobe Illustrator 19.0.0, SVG Export Plug-In . SVG Version: 6.00 Build 0)  -->
<svg version="1.1" id="Capa_1" xmlns="http://www.w3.org/2000/svg" xmlns:xlink="http://www.w3.org/1999/xlink" x="0px" y="0px"
	 viewBox="0 0 512 512" style="enable-background:new 0 0 512 512;" xml:space="preserve">
<g>
	<g>
		<g>
			<polygon points="0,49.7 0,432.293 30.007,432.293 30.007,417.289 15.004,417.289 15.004,64.703 496.996,64.703 496.996,417.289 
				481.993,417.289 481.993,432.293 512,432.293 512,49.7 			"/>
			<path d="M37.572,462.3h436.982v-45.011H37.572V462.3z M52.576,432.293H459.55v15.004H52.576V432.293z"/>
			<rect x="57.264" y="394.786" width="22.505" height="15.004"/>
			<rect x="94.773" y="394.786" width="22.505" height="15.004"/>
			<rect x="132.282" y="394.786" width="22.505" height="15.004"/>
			<rect x="169.791" y="394.786" width="22.505" height="15.004"/>
			<rect x="207.301" y="394.786" width="22.505" height="15.004"/>
			<rect x="244.81" y="394.786" width="22.506" height="15.004"/>
			<rect x="282.319" y="394.786" width="22.505" height="15.004"/>
			<rect x="319.828" y="394.786" width="22.505" height="15.004"/>
			<rect x="357.337" y="394.786" width="22.505" height="15.004"/>
			<rect x="394.846" y="394.786" width="22.505" height="15.004"/>
			<rect x="432.356" y="394.786" width="22.505" height="15.004"/>
			<path d="M315.077,79.707H30.007v285.07h285.07V79.707z M300.073,349.773H45.011V94.711h255.062V349.773z"/>
			<path d="M88.649,334.769h167.786c15.789,0,28.634-12.845,28.634-28.634V138.348c0-15.789-12.845-28.634-28.634-28.634H88.649
				c-15.789,0-28.634,12.845-28.634,28.634v167.786C60.015,321.923,72.86,334.769,88.649,334.769z M75.018,138.348
				c0-7.516,6.115-13.63,13.63-13.63h167.786c7.516,0,13.63,6.115,13.63,13.63v167.786c0,7.516-6.115,13.63-13.63,13.63H88.649
				c-7.516,0-13.63-6.115-13.63-13.63V138.348z"/>
			<path d="M330.081,364.777h150.037v-60.015H330.081V364.777z M345.084,319.766h120.029v30.007H345.084V319.766z"/>
			<rect x="360.088" y="327.269" width="90.022" height="15.004"/>
			<path d="M330.081,289.758h150.037v-60.015H330.081V289.758z M345.084,244.747h120.029v30.007H345.084V244.747z"/>
			<rect x="360.088" y="252.251" width="90.022" height="15.004"/>
			<path d="M330.081,192.234c0,12.41,10.095,22.505,22.505,22.505s22.505-10.095,22.505-22.505s-10.095-22.505-22.505-22.505
				S330.081,179.824,330.081,192.234z M352.586,184.733c4.137,0,7.502,3.365,7.502,7.502c0,4.137-3.365,7.502-7.502,7.502
				c-4.137,0-7.502-3.365-7.502-7.502C345.084,188.097,348.449,184.733,352.586,184.733z"/>
			<rect x="397.597" y="184.735" width="15.004" height="15.004"/>
			<rect x="420.103" y="184.735" width="15.004" height="15.004"/>
			<rect x="442.608" y="184.735" width="15.004" height="15.004"/>
			<rect x="465.114" y="184.735" width="15.004" height="15.004"/>
			<rect x="337.582" y="109.716" width="15.004" height="15.004"/>
			<rect x="367.59" y="94.713" width="15.004" height="45.011"/>
			<rect x="397.597" y="79.709" width="15.004" height="75.018"/>
			<rect x="427.604" y="94.713" width="15.004" height="45.011"/>
			<rect x="457.612" y="109.716" width="15.004" height="15.004"/>
			<path d="M105.026,168.356c0-7.516,6.115-13.63,13.63-13.63h7v-15.004h-7c-15.789,0-28.634,12.845-28.634,28.634v40.758h15.004
				V168.356z"/>
			<rect x="90.022" y="222.244" width="15.004" height="30.007"/>
			<rect x="90.022" y="265.374" width="15.004" height="16.879"/>
		</g>
	</g>
</g>
<g>
</g>
<g>
</g>
<g>
</g>
<g>
</g>
<g>
</g>
<g>
</g>
<g>
</g>
<g>
</g>
<g>
</g>
<g>
</g>
<g>
</g>
<g>
</g>
<g>
</g>
<g>
</g>
<g>
</g>
</svg>
