<svg id="Layer_1" enable-background="new 0 0 512 512" height="512" viewBox="0 0 512 512" width="512" xmlns="http://www.w3.org/2000/svg"><g><g style="fill:none;stroke:#212121;stroke-linecap:round;stroke-linejoin:round;stroke-miterlimit:10;stroke-width:10"><path d="m135 221 36-37"/><path d="m167.2 221 25.8-26"/></g><g fill="#212121"><path d="m146.2 315.5h8v8h-8z"/><path d="m161.2 315.5h8v8h-8z"/><path d="m176.2 315.5h8v8h-8z"/><path d="m191.2 315.5h8v8h-8z"/><path d="m206.2 315.5h8v8h-8z"/><path d="m146.2 328.5h83v8h-83z"/><path d="m146.2 302.5h8v8h-8z"/><path d="m130.2 315.5h8v8h-8z"/><path d="m130.2 302.5h8v8h-8z"/><path d="m161.2 302.5h8v8h-8z"/><path d="m176.2 302.5h8v8h-8z"/><path d="m191.2 302.5h8v8h-8z"/><path d="m206.2 302.5h8v8h-8z"/><path d="m266.2 315.5h8v8h-8z"/><path d="m281.2 315.5h8v8h-8z"/><path d="m296.2 315.5h8v8h-8z"/><path d="m266.2 328.5h8v8h-8z"/><path d="m281.2 328.5h8v8h-8z"/><path d="m296.2 328.5h8v8h-8z"/><path d="m266.2 302.5h8v8h-8z"/><path d="m281.2 302.5h8v8h-8z"/><path d="m296.2 302.5h8v8h-8z"/><path d="m221.2 302.5h8v8h-8z"/><path d="m236.2 302.5h8v8h-8z"/><path d="m221.2 315.5h23v8h-23z"/></g><g fill="none" stroke="#212121" stroke-linejoin="round" stroke-miterlimit="10"><g><path d="m289.2 228h41" stroke-linecap="round" stroke-width="4"/><path d="m321.2 228h11" stroke-width="10"/></g><path d="m84.7 142h266v121h-266z" stroke-linecap="round" stroke-width="10"/><path d="m100.7 157h126.5v91h-126.5z" stroke-linecap="round" stroke-width="10"/><path d="m245.2 157h87" stroke-linecap="round" stroke-width="4"/><path d="m245.2 167h87" stroke-linecap="round" stroke-width="4"/><path d="m245.2 177h87" stroke-linecap="round" stroke-width="4"/><path d="m245.2 187h87" stroke-linecap="round" stroke-width="4"/><path d="m245.2 197h87" stroke-linecap="round" stroke-width="4"/><path d="m361.2 354.7h-288l25.5-70.4h237.1z" stroke-linecap="round" stroke-width="10"/><path d="m98.7 284.3h237.1l4.6 12.7h10.3v-34h-266v34h9.4z" stroke-linecap="round" stroke-width="10"/><path d="m73.2 355h288v15h-288z" stroke-linecap="round" stroke-width="10"/><path d="m392.2 306.5h39v49.5h-39z" stroke-linecap="round" stroke-width="10"/><path d="m350.7 246.2h75.5c6.9 0 12.5 5.6 12.5 12.5 0 6.9-5.6 12.5-12.5 12.5h-2c-6.9 0-12.5 5.6-12.5 12.5v22.8" stroke-linecap="round" stroke-width="10"/><path d="m401.8 319.5h20" stroke-width="10"/></g></g></svg>