<svg height="512" viewBox="0 0 512 512" width="512" xmlns="http://www.w3.org/2000/svg"><g id="Movie_Theatre"><path d="m443.2666 69.7325a7.9989 7.9989 0 0 0 -6.5518-1.7334 1013.0077 1013.0077 0 0 1 -361.43 0 8 8 0 0 0 -9.4224 7.8726v223.915a8 8 0 0 0 9.4224 7.8726 1013.0123 1013.0123 0 0 1 361.43 0 8 8 0 0 0 9.4224-7.8726v-223.915a8 8 0 0 0 -2.8706-6.1392zm-13.1294 220.5235a1028.6183 1028.6183 0 0 0 -348.2744 0v-204.854a1028.4886 1028.4886 0 0 0 348.2744 0z"/><path d="m401.0327 358.858h-28.1942a35.2992 35.2992 0 0 0 -35.2485-34.6347h-36.2936a35.2993 35.2993 0 0 0 -35.2492 34.6347h-20.0944a35.2993 35.2993 0 0 0 -35.2492-34.6347h-36.2936a35.2992 35.2992 0 0 0 -35.2487 34.6347h-28.194a35.305 35.305 0 0 0 -35.2647 35.2652v42.0053a8 8 0 0 0 8 8h90.8228a8 8 0 0 0 8-8v-26.6352h20.063v26.6352a8 8 0 0 0 8 8h90.8232a8 8 0 0 0 8-8v-26.6352h20.063v26.6352a8 8 0 0 0 8 8h90.8228a8 8 0 0 0 8-8v-42.0053a35.305 35.305 0 0 0 -35.2647-35.2652zm-234.5073 69.27h-74.8228v-34.0048a19.2866 19.2866 0 0 1 19.2647-19.2652h36.2934a19.2866 19.2866 0 0 1 19.2647 19.2652zm36.079-34.6352h-20.095a35.3158 35.3158 0 0 0 -27.3639-33.7355v-.27a19.2865 19.2865 0 0 1 19.2645-19.264h36.2934a19.2866 19.2866 0 0 1 19.2652 19.2646v.27a35.3157 35.3157 0 0 0 -27.3642 33.7354zm90.8072 34.6352h-74.8232v-34.0048a19.2866 19.2866 0 0 1 19.2646-19.2652h36.294a19.2866 19.2866 0 0 1 19.2646 19.2652zm36.079-34.6352h-20.095a35.3157 35.3157 0 0 0 -27.3644-33.7356v-.27a19.2866 19.2866 0 0 1 19.2652-19.2646h36.2936a19.2865 19.2865 0 0 1 19.2647 19.2646v.27a35.3158 35.3158 0 0 0 -27.3641 33.7361zm90.8068 34.6352h-74.8228v-34.0048a19.2866 19.2866 0 0 1 19.2647-19.2652h36.2934a19.2866 19.2866 0 0 1 19.2647 19.2652z"/></g></svg>