<?xml version="1.0"?>
<svg xmlns="http://www.w3.org/2000/svg" id="line" viewBox="0 0 64 64"><path d="M23.8291,35.72852A14.933,14.933,0,0,1,9.08844,30.0802a4.70918,4.70918,0,0,1,3.12738-3.68079l1.97363-.65576a11.74481,11.74481,0,0,0,13.6211,0l1.98144.65821a4.48092,4.48092,0,0,1,1.43164.77734.99958.99958,0,1,0,1.252-1.55859A6.45929,6.45929,0,0,0,30.415,24.501l-2.46973-.82032a.99829.99829,0,0,0-.93359.16309,9.7418,9.7418,0,0,1-12.02344,0,.99876.99876,0,0,0-.93359-.16309L11.583,24.502a6.71175,6.71175,0,0,0-3.87555,3.42328A14.99664,14.99664,0,1,1,35.72852,23.8291a.99984.99984,0,0,0,1.96289.38184A16.838,16.838,0,0,0,38,21,17,17,0,1,0,21,38a16.82017,16.82017,0,0,0,3.21-.30859.99975.99975,0,1,0-.38086-1.96289Z"/><path d="M13.23828,16.1582A7.76172,7.76172,0,1,0,21,8.397,7.76983,7.76983,0,0,0,13.23828,16.1582Zm13.52344,0A5.76172,5.76172,0,1,1,21,10.397,5.76816,5.76816,0,0,1,26.76172,16.1582Z"/><path d="M43,26A17,17,0,1,0,60,43,17.019,17.019,0,0,0,43,26Zm0,2A14.97986,14.97986,0,0,1,56.29333,49.92383,6.65267,6.65267,0,0,0,52.415,46.501l-2.46973-.82032a.99506.99506,0,0,0-.93261.16309,9.74464,9.74464,0,0,1-12.0254,0,.99459.99459,0,0,0-.93261-.16309L33.585,46.501a6.67978,6.67978,0,0,0-3.87805,3.42328A14.97983,14.97983,0,0,1,43,28Zm0,30a14.96871,14.96871,0,0,1-11.90955-5.91687,4.68453,4.68453,0,0,1,3.12537-3.68372l1.97363-.65625a11.74265,11.74265,0,0,0,13.6211,0l1.97461.65625a4.66364,4.66364,0,0,1,3.122,3.68689A14.96874,14.96874,0,0,1,43,58Z"/><path d="M43,45.91992a7.76148,7.76148,0,1,0-7.76172-7.76172A7.76993,7.76993,0,0,0,43,45.91992ZM43,32.397a5.76148,5.76148,0,1,1-5.76172,5.76123A5.76817,5.76817,0,0,1,43,32.397Z"/><path d="M40,13h8a3.00328,3.00328,0,0,1,3,3v5.58594l-.293-.293A.99989.99989,0,0,0,49.293,22.707l2,2a.99963.99963,0,0,0,1.41406,0l2-2A.99989.99989,0,1,0,53.293,21.293l-.293.293V16a5.00588,5.00588,0,0,0-5-5H40a1,1,0,0,0,0,2Z"/><path d="M24,51H16a3.00328,3.00328,0,0,1-3-3V42.41406l.293.293A.99989.99989,0,1,0,14.707,41.293l-2-2a.99962.99962,0,0,0-1.41406,0l-2,2A.99989.99989,0,0,0,10.707,42.707l.293-.293V48a5.00588,5.00588,0,0,0,5,5h8a1,1,0,0,0,0-2Z"/></svg>
