<svg fill="none" height="512" viewBox="0 0 100 100" width="512" xmlns="http://www.w3.org/2000/svg"><path clip-rule="evenodd" d="m71.2929 19.1533h-42.5859c-1.6568 0-3 1.3432-3 3v57.8128c0 .7546.8039 1.2374 1.47.8827l19.5334-10.3993c2.0564-1.0949 4.5227-1.0949 6.5791 0l19.5334 10.3993c.6661.3547 1.47-.1281 1.47-.8827v-57.8128c0-1.6568-1.3432-3-3-3zm-42.5859-3c-3.3137 0-6 2.6863-6 6v57.8128c0 3.0184 3.2155 4.9493 5.8798 3.5308l19.5334-10.3994c1.1751-.6256 2.5844-.6256 3.7595 0l19.5334 10.3994c2.6643 1.4185 5.8798-.5124 5.8798-3.5308v-57.8128c0-3.3137-2.6863-6-6-6z" fill="rgb(0,0,0)" fill-rule="evenodd"/></svg>