<svg clip-rule="evenodd" fill-rule="evenodd" height="512" image-rendering="optimizeQuality" shape-rendering="geometricPrecision" text-rendering="geometricPrecision" viewBox="0 0 1707 1707" width="512" xmlns="http://www.w3.org/2000/svg"><g id="Layer_x0020_1"><path d="m1128 665c-26 0-40-32-21-51l263-267c28-28 71 14 43 42l-263 267c-6 6-14 9-22 9zm181-427 144-146c54-54 143-56 198-1l14 14c55 54 56 143 1 198l-77 78-279 283v806c0 103-84 186-186 186h-938c-103 0-186-83-186-186v-1226c0-102 83-185 186-185h942c100 0 176 83 181 179zm-539 790c-19 0-34-19-29-39l72-247 437-443v-55c0-69-57-125-126-125h-938c-70 0-126 56-126 125v1226c0 69 56 126 126 126h938c69 0 126-57 126-126v-745l-225 226zm246-249c-27 0-40-32-21-51l47-48c28-28 70 14 43 42l-48 48c-6 6-13 9-21 9zm-71-377h-706c-40 0-40-60 0-60h706c39 0 39 60 0 60zm-181 245h-525c-40 0-40-60 0-60h525c39 0 39 60 0 60zm-133 245h-392c-40 0-40-60 0-60h392c39 0 39 60 0 60zm118 244h-510c-40 0-40-60 0-60h510c40 0 40 60 0 60zm323 245h-833c-40 0-40-60 0-60h833c40 0 40 60 0 60zm-218-567-40 139 139-42zm28-57 127 126 517-523-128-126zm558-566 128 126 56-56c31-32 30-82-1-113-37-37-85-56-127-13z" fill-rule="nonzero"/></g></svg>