<svg id="Capa_1" enable-background="new 0 0 512 512" height="512" viewBox="0 0 512 512" width="512" xmlns="http://www.w3.org/2000/svg"><g><path d="m481.059 77.662-70.772-70.77c-4.445-4.444-10.354-6.892-16.64-6.892h-297.97c-12.975 0-23.532 10.557-23.532 23.532v232.984h-16.548c-17.396 0-31.548 14.153-31.548 31.548v144.29c0 17.396 14.152 31.549 31.548 31.549h248.5c12.976 0 23.532-10.557 23.532-23.532v-112.225c0-12.976-10.557-23.533-23.532-23.533h-248.5c-9.125 0-16.548-7.423-16.548-16.548s7.423-16.548 16.548-16.548h16.548v8.535c0 4.142 3.358 7.5 7.5 7.5s7.5-3.358 7.5-7.5v-256.52c0-4.705 3.828-8.532 8.532-8.532h289.097v72.661c0 8.556 6.96 15.517 15.516 15.517h72.661v385.29c0 4.705-3.828 8.532-8.532 8.532h-368.742c-4.705 0-8.532-3.827-8.532-8.532 0-4.142-3.358-7.5-7.5-7.5s-7.5 3.358-7.5 7.5c0 12.976 10.557 23.532 23.532 23.532h368.742c12.976 0 23.532-10.557 23.532-23.532v-394.166c.001-6.285-2.447-12.195-6.892-16.64zm-425.462 241.951h248.5c4.705 0 8.532 3.828 8.532 8.533v112.226c0 4.705-3.828 8.532-8.532 8.532h-248.5c-9.125 0-16.548-7.424-16.548-16.549v-117.44c4.813 2.979 10.483 4.698 16.548 4.698zm344.177-231.952v-70.068l70.587 70.585h-70.071c-.284 0-.516-.232-.516-.517z"/><path d="m236.571 423.588c4.142 0 7.5-3.358 7.5-7.5v-24.933h16.251c4.142 0 7.5-3.358 7.5-7.5s-3.358-7.5-7.5-7.5h-16.251v-16.227h18.301c4.142 0 7.5-3.358 7.5-7.5 0-4.143-3.358-7.5-7.5-7.5h-25.801c-4.142 0-7.5 3.357-7.5 7.5v63.659c0 4.142 3.358 7.501 7.5 7.501z"/><path d="m157.74 420.697c1.405 1.395 3.305 2.177 5.284 2.177h.028c.533-.002 13.098-.05 18.117-.138 18.533-.324 31.985-16.506 31.985-38.478 0-23.097-13.113-38.616-32.631-38.616h-17.625c-1.992 0-3.901.792-5.308 2.202s-2.196 3.321-2.192 5.312v.049.001 61.157c0 .515.052 1.018.151 1.504.12 1.819.89 3.539 2.191 4.83zm22.783-60.055c13 0 17.631 12.199 17.631 23.616 0 16.012-8.662 23.331-17.247 23.48-2.386.042-6.643.075-10.409.098-.024-7.358-.074-39.54-.087-47.194z"/><path d="m95.445 423.822c4.142 0 7.5-3.357 7.5-7.5v-20.396c3.724-.02 7.958-.039 10.356-.039 14.31 0 25.952-11.482 25.952-25.597s-11.642-25.598-25.952-25.598h-17.856c-1.993 0-3.904.794-5.312 2.205-1.402 1.406-2.187 3.311-2.187 5.295h-.001v64.129c0 4.144 3.358 7.501 7.5 7.501zm17.856-64.129c5.937 0 10.952 4.854 10.952 10.598s-5.015 10.597-10.952 10.597c-2.382 0-6.563.019-10.273.038-.02-3.831-.05-17.224-.061-21.232h10.334z"/><path d="m235.948 217.462c-18.433 5.818-37.352 13.871-47.444 24.288-8.327 8.595-9.836 18.567-4.141 27.36 3.865 5.967 9.178 9.086 15.152 9.086 2.293 0 4.684-.46 7.127-1.394 8.813-3.37 18.331-12.957 29.098-29.31 3.476-5.279 6.995-11.146 10.498-17.493 1.275-.375 2.575-.748 3.905-1.12 21.166-5.922 45.112-10.22 66.128-12.016 12.811 12.388 26.053 22.04 37.342 24.673 12.419 2.897 22.265-2.782 26.332-15.192 2.463-7.517-.373-14.605-7.588-18.96-7.418-4.479-20.309-6.642-38.306-6.436-3.833.044-7.879.2-12.089.461-8.085-8.338-16.497-18.303-24.598-29.308-6.276-8.525-11.886-17.056-16.63-25.165.516-1.777 1.006-3.53 1.471-5.252 5.127-19.013 6.956-33.57 5.435-43.268-2.197-14.005-11.236-15.994-15.02-16.198-12.885-.697-21.564 5.804-23.215 17.389-1.312 9.203 1.783 21.865 9.198 37.633 1.763 3.748 3.74 7.611 5.911 11.556-.809 2.596-1.686 5.297-2.636 8.108-6.914 20.454-16.278 42.249-25.93 60.558zm-36.017 45.694c-.535.067-1.437.18-2.979-2.201-1.255-1.938-1.323-3.4-.252-5.396 2.504-4.668 11.053-11.218 27.596-17.984-11.546 17.908-20.175 25.058-24.365 25.581zm165.884-41.993c-.011.093-.041.259-.124.511-1.873 5.716-4.39 6.255-8.671 5.256-5.226-1.219-11.864-5.08-19.268-10.989 20.048.16 27.042 3.772 28.063 5.222zm-101.561-119.438c.306-2.144.649-4.555 6.355-4.555.359 0 .74.01 1.142.029 1.708 2.081 2.587 11.34-1.365 29.664-4.655-10.675-6.929-19.543-6.132-25.138zm10.444 64.004c3.292 5.059 6.833 10.168 10.586 15.266 5.384 7.314 11.466 14.907 17.899 22.155-7.442.898-15.118 2.057-22.797 3.451-5.196.943-14.255 2.722-24.859 5.367 2.352-4.877 4.671-9.932 6.94-15.13 4.51-10.329 8.658-20.898 12.231-31.109z"/></g></svg>