<?xml version="1.0" encoding="UTF-8"?>
<svg xmlns="http://www.w3.org/2000/svg" id="Layer_1" data-name="Layer 1" viewBox="0 0 48 48" width="512" height="512"><path d="M21.93,39H7a3,3,0,0,1-3-3V15H37v6.32a1,1,0,0,0,2,0V10a5.006,5.006,0,0,0-5-5H32a3,3,0,0,0-6,0H15A3,3,0,0,0,9,5H7a5.006,5.006,0,0,0-5,5V36a5.006,5.006,0,0,0,5,5H21.93a1,1,0,0,0,0-2ZM28,5a1,1,0,0,1,2,0V7a1,1,0,0,1-2,0ZM11,5a1,1,0,0,1,2,0V7a1,1,0,0,1-2,0ZM4,10A3,3,0,0,1,7,7H9a3,3,0,0,0,6,0H26a3,3,0,0,0,6,0h2a3,3,0,0,1,3,3v3H4Z"/><path d="M14,20a2,2,0,0,0-2-2H9a2,2,0,0,0-2,2v3a2,2,0,0,0,2,2h3a2,2,0,0,0,2-2ZM9,23V20h3v3Z"/><path d="M24,20a2,2,0,0,0-2-2H19a2,2,0,0,0-2,2v3a2,2,0,0,0,2,2h3a2,2,0,0,0,2-2Zm-5,3V20h3v3Z"/><path d="M33,22.14a1,1,0,0,0,1-1V20a2,2,0,0,0-2-2H29a2,2,0,0,0-2,2v2.88a1,1,0,0,0,2,0V20h3v1.14A1,1,0,0,0,33,22.14Z"/><path d="M12,28H9a2,2,0,0,0-2,2v3a2,2,0,0,0,2,2h3a2,2,0,0,0,2-2V30A2,2,0,0,0,12,28ZM9,33V30h3v3Z"/><path d="M22.69,28.131A1.856,1.856,0,0,0,22,28H19a2,2,0,0,0-2,2v3a2,2,0,0,0,2,2h2.04a1,1,0,0,0,0-2H19V30l2.95-.011a1,1,0,0,0,.74-1.858Z"/><path d="M35,24A11,11,0,1,0,46,35,11.013,11.013,0,0,0,35,24Zm0,20a9,9,0,1,1,9-9A9.01,9.01,0,0,1,35,44Z"/><path d="M36,34.586V30a1,1,0,0,0-2,0v5a1,1,0,0,0,.293.707l2,2a1,1,0,0,0,1.414-1.414Z"/></svg>
