<svg id="icons" height="512" viewBox="0 0 64 64" width="512" xmlns="http://www.w3.org/2000/svg"><g id="layer39"><g id="g21146"><g id="rect13132"><path d="m48.97754 39.51953a1.99489 1.99489 0 0 1 -1.41406-.585l-2.39063-2.39053a.99989.99989 0 0 1 1.41406-1.41407l2.39063 2.39063 2.82812-2.82813-2.39066-2.39067a.99989.99989 0 1 1 1.4141-1.41406l2.39063 2.39062a2.00105 2.00105 0 0 1 0 2.82813l-2.82813 2.82812a1.99491 1.99491 0 0 1 -1.41406.58496z"/></g><g id="rect8163"><path d="m31.84766 35.5h-30.84766a.99943.99943 0 0 1 -1-1v-5a.99943.99943 0 0 1 1-1h27.47168a1 1 0 0 1 0 2h-26.47168v3h29.84766a1 1 0 0 1 0 2z"/></g><g id="rect9703"><path d="m7 51.5h-4.01953a.99942.99942 0 0 1 -1-1v-16a1 1 0 0 1 2 0v15h2.01953v-15a1 1 0 0 1 2 0v16a.99943.99943 0 0 1 -1 1z"/></g><g id="path10023"><path d="m15 45.5h-4a.99943.99943 0 0 1 -1-1v-10a1 1 0 0 1 2 0v9h2v-9a1 1 0 0 1 2 0v10a.99943.99943 0 0 1 -1 1z"/></g><g id="path11760"><path d="m.999 30.5a1.0001 1.0001 0 0 1 -.7988-1.59961l6-8a.99947.99947 0 0 1 .7998-.40039h21.47168a1 1 0 0 1 0 2h-20.97168l-5.7002 7.59961a.99556.99556 0 0 1 -.8008.40039z"/></g><g id="path12111"><path d="m37 51.5h-4a.99943.99943 0 0 1 -1-1v-15.10254a1 1 0 1 1 2 0v14.10254h2v-12.32812a1 1 0 0 1 2 0v13.32812a.99943.99943 0 0 1 -1 1z"/></g><g id="path12113"><path d="m29 45.5h-4a.99943.99943 0 0 1 -1-1v-10a1 1 0 0 1 2 0v9h2v-9a1 1 0 0 1 2 0v10a.99943.99943 0 0 1 -1 1z"/></g><g id="path13028"><path d="m39.78516 38.49414a12.99414 12.99414 0 1 1 9.19238-3.80176 12.96009 12.96009 0 0 1 -9.19238 3.80176zm0-23.98926a10.99512 10.99512 0 1 0 7.77832 3.2168 10.96682 10.96682 0 0 0 -7.77832-3.2168z"/></g><g id="rect13775"><path d="m60.99805 49.71484a2.98091 2.98091 0 0 1 -2.12205-.88084l-9.89844-9.89941a.99989.99989 0 0 1 1.41406-1.41406l9.89938 9.89939a1.01663 1.01663 0 0 0 1.41308 0 .9938.9938 0 0 0 .001-1.41406l-9.89942-9.89941a.9999.9999 0 0 1 1.41407-1.41407l9.89941 9.89942a3.00146 3.00146 0 0 1 -2.12109 5.123z"/></g><g id="circle14317"><path d="m34.12793 20.84277a1 1 0 0 1 -.707-1.707 8.94355 8.94355 0 0 1 6.36423-2.63577 1 1 0 0 1 0 2 6.95962 6.95962 0 0 0 -4.9502 2.0498.99672.99672 0 0 1 -.70703.29297z"/></g></g></g></svg>