<svg id="School_L" height="512" viewBox="0 0 100 100" width="512" xmlns="http://www.w3.org/2000/svg"><path d="m99.364 45.59-7.897-15.592c-1.061-2.094-3.397-3.448-5.953-3.448h-71.004c-2.555 0-4.892 1.354-5.953 3.448l-7.897 15.592c-.875 1.729-.793 3.673.226 5.332.813 1.323 2.147 2.281 3.694 2.739v34.066c0 .829.671 1.5 1.5 1.5h6c.829 0 1.5-.671 1.5-1.5v-12.23h5.427c.829 0 1.5-.671 1.5-1.5v-13.742h59.013v13.742c0 .829.671 1.5 1.5 1.5h5.427v12.23c0 .829.671 1.5 1.5 1.5h6c.829 0 1.5-.671 1.5-1.5v-34.066c1.547-.458 2.881-1.416 3.694-2.739 1.019-1.659 1.101-3.602.225-5.331zm-88.131-14.236c.555-1.095 1.841-1.803 3.277-1.803h71.004c1.436 0 2.722.708 3.277 1.803l7.532 14.872h-92.622s7.532-14.872 7.532-14.872zm6.273 41.142h-3v-12.242h3zm68.013 0h-3v-12.242h3zm6.927 13.73h-3v-27.473c0-.829-.671-1.5-1.5-1.5h-75.867c-.829 0-1.5.671-1.5 1.5v27.473h-3v-31.973h84.866zm4.138-36.875c-.612.996-1.828 1.615-3.172 1.615h-86.799c-1.344 0-2.56-.619-3.172-1.615-.023-.037-.047-.082-.07-.125h93.282c-.024.043-.048.088-.069.125z"/></svg>